<svg xmlns="http://www.w3.org/2000/svg" viewBox="1130 -5 232 225">
  <path d="M1221.33 172.663V72.8066C1221.33 50.3073 1224.07 22.4994 1224.07 5.05616C1224.07 2.0225 1222.42 6.10352e-05 1217.23 6.10352e-05C1200.27 6.10352e-05 1166.9 10.6177 1143.1 13.1455C1139.27 13.6513 1137.9 14.4096 1137.9 16.1791C1137.9 17.9487 1139 18.7074 1142.01 18.7074C1145.29 18.7074 1150.49 17.4433 1157.87 17.4433C1163.61 17.4433 1166.62 21.2353 1166.62 33.3699V172.663C1166.35 199.966 1158.69 205.78 1142.55 205.78C1139.27 205.78 1138.18 206.539 1138.18 208.561C1138.18 210.331 1139.27 210.836 1142.55 210.836C1154.59 210.836 1167.99 209.825 1176.2 209.825H1211.48C1219.96 209.825 1233.09 210.836 1245.13 210.836C1248.68 210.836 1249.78 210.078 1249.78 208.308C1249.78 206.286 1248.68 205.78 1245.13 205.78C1228.99 205.78 1221.33 199.966 1221.33 172.663Z" fill="#141414"/>
  <path d="M1327.46 172.663V72.8066C1327.46 50.3073 1330.2 22.4994 1330.2 5.05616C1330.2 2.0225 1328.56 6.10352e-05 1323.36 6.10352e-05C1306.4 6.10352e-05 1273.03 10.6177 1249.23 13.1455C1245.4 13.6513 1244.03 14.4096 1244.03 16.1791C1244.03 17.9487 1245.13 18.7074 1248.14 18.7074C1251.42 18.7074 1256.62 17.4433 1264 17.4433C1269.75 17.4433 1272.76 21.2353 1272.76 33.3699V172.663C1272.48 199.966 1264.82 205.78 1248.68 205.78C1245.4 205.78 1244.31 206.539 1244.31 208.561C1244.31 210.331 1245.4 210.836 1248.68 210.836C1260.72 210.836 1274.12 209.825 1282.33 209.825H1317.61C1326.09 209.825 1339.22 210.836 1351.26 210.836C1354.82 210.836 1355.91 210.078 1355.91 208.308C1355.91 206.286 1354.82 205.78 1351.26 205.78C1335.12 205.78 1327.46 199.966 1327.46 172.663Z" fill="#141414"/>
</svg>
