<svg width="1356" height="214" viewBox="0 0 1356 214" fill="none" xmlns="http://www.w3.org/2000/svg">
<g clip-path="url(#clip0_6_24)">
<path d="M83.4279 172.663V72.8065C83.4279 50.3072 86.163 22.4993 86.163 5.0561C86.163 2.02244 84.5221 0 79.3249 0C62.3658 0 28.9944 10.6176 5.19711 13.1454C1.36733 13.6513 0 14.4096 0 16.1791C0 17.9486 1.09415 18.7073 4.10296 18.7073C7.38542 18.7073 12.5825 17.4432 19.9679 17.4432C25.7119 17.4432 28.7207 21.2352 28.7207 33.3698V172.663C28.4475 199.966 20.7884 205.78 4.6498 205.78C1.36734 205.78 0.273184 206.539 0.273184 208.561C0.273184 210.331 1.36734 210.836 4.6498 210.836C16.6855 210.836 30.0885 209.825 38.2944 209.825H73.5805C82.0601 209.825 95.1899 210.836 107.225 210.836C110.781 210.836 111.875 210.078 111.875 208.308C111.875 206.286 110.781 205.78 107.225 205.78C91.087 205.78 83.4279 199.966 83.4279 172.663Z" fill="#141414"/>
<path d="M158.923 213.87C179.165 213.87 195.03 197.691 204.603 184.039C207.065 180.247 211.716 179.995 211.716 185.556C211.716 197.438 202.689 213.87 210.348 213.87C214.451 213.87 230.863 209.825 250.831 209.825C268.063 209.825 283.655 210.836 294.322 210.836C298.152 210.836 299.246 210.331 299.246 208.561C299.246 206.539 298.152 205.78 294.322 205.78C276.27 205.78 267.79 199.966 267.79 172.663V122.861C267.79 106.429 270.525 84.9412 270.525 73.8178C270.525 70.0259 268.611 68.0034 264.508 68.0034C236.881 68.0034 213.357 78.621 196.671 81.1493C193.935 81.6547 193.115 82.4134 193.115 84.1829C193.115 85.9525 193.662 86.7108 195.851 86.7108C198.038 86.7108 201.868 85.4466 207.065 85.4466C210.895 85.4466 213.083 86.7108 213.083 93.7893V163.815C213.083 176.708 199.133 185.303 190.653 185.303C182.447 185.303 179.165 179.995 179.165 166.596V122.608C179.165 106.429 181.9 84.9412 181.9 73.8178C181.9 70.0259 179.986 68.0034 175.882 68.0034H175.335C158.376 68.0034 124.732 78.621 100.934 81.1493C97.1045 81.6547 95.7367 82.4134 95.7367 84.1829C95.7367 85.9525 96.8308 86.7108 99.8397 86.7108C103.122 86.7108 108.319 85.4466 115.705 85.4466C121.449 85.4466 124.458 89.239 124.458 101.373V176.203C124.458 201.736 137.588 213.87 158.923 213.87Z" fill="#141414"/>
<path d="M370.639 172.663V141.822C370.639 118.816 373.374 87.9749 373.374 75.0819C373.374 70.2787 370.912 68.0034 366.536 68.0034C349.303 68.2563 315.932 78.621 292.408 81.1492C288.579 81.6546 287.211 82.4134 287.211 84.1829C287.211 85.9524 288.305 86.7108 291.314 86.7108C294.596 86.7108 299.793 85.4466 307.179 85.4466C312.923 85.4466 315.932 89.239 315.932 101.373V172.663C315.658 199.966 307.179 205.78 289.125 205.78C285.57 205.78 284.202 206.539 284.202 208.561C284.202 210.331 285.57 210.836 289.125 210.836C302.529 210.836 317.3 209.825 326.6 209.825H359.698C368.998 209.825 383.768 210.836 397.171 210.836C401.001 210.836 402.095 210.078 402.095 208.308C402.095 206.286 401.001 205.78 397.171 205.78C379.118 205.78 370.639 199.966 370.639 172.663ZM311.555 32.1057C311.555 46.5153 323.044 56.3746 340.276 56.3746C357.236 56.3746 368.724 46.5153 368.724 32.1057C368.724 17.4433 357.236 7.58398 340.276 7.58398C323.044 7.58398 311.555 17.4433 311.555 32.1057Z" fill="#141414"/>
<path d="M515.885 212.353C520.809 212.353 523.545 211.089 523.545 205.022C523.545 197.691 522.724 173.927 523.545 148.647C523.818 145.108 523.818 143.338 521.356 143.338C518.894 143.338 518.894 145.108 518.894 148.647C516.433 184.039 506.312 206.286 479.232 206.286H473.488C466.376 206.286 464.188 202.999 467.196 197.185L523.271 84.9412C527.648 76.3461 523.818 72.0483 518.347 72.0483C511.783 72.0483 494.003 73.3124 473.488 73.3124C441.484 73.3124 420.422 70.7841 413.037 70.7841C408.113 70.7841 405.378 72.0483 405.378 78.1156C405.378 86.4578 405.925 109.21 404.284 134.49C404.01 138.03 404.01 139.799 406.472 139.799C408.934 139.799 408.934 138.03 408.934 134.49C408.934 101.879 422.61 76.8514 449.69 76.8514H455.434C462.547 76.8514 464.734 80.138 461.726 85.9524L405.651 198.196C401.274 206.791 405.104 211.089 410.575 211.089C417.139 211.089 434.92 209.825 463.64 209.825C492.909 209.825 508.5 212.353 515.885 212.353Z" fill="#141414"/>
<path d="M672.347 172.663V72.8066C672.347 50.3073 675.083 22.4994 675.083 5.05616C675.083 2.0225 673.441 6.10352e-05 668.244 6.10352e-05C651.285 6.10352e-05 617.914 10.6177 594.116 13.1455C590.287 13.6513 588.919 14.4096 588.919 16.1791C588.919 17.9487 590.013 18.7074 593.022 18.7074C596.305 18.7074 601.502 17.4433 608.887 17.4433C614.631 17.4433 617.64 21.2353 617.64 33.3699V172.663C617.367 199.966 609.708 205.78 593.569 205.78C590.287 205.78 589.193 206.539 589.193 208.561C589.193 210.331 590.287 210.836 593.569 210.836C605.605 210.836 619.008 209.825 627.214 209.825H662.5C670.98 209.825 684.109 210.836 696.145 210.836C699.7 210.836 700.795 210.078 700.795 208.308C700.795 206.286 699.7 205.78 696.145 205.78C680.006 205.78 672.347 199.966 672.347 172.663Z" fill="#141414"/>
<path d="M735.534 213.87C756.049 213.87 765.622 202.494 774.102 177.972C776.017 172.158 782.035 173.674 780.667 179.236C775.743 198.702 794.89 213.617 815.406 213.617C844.4 213.617 859.718 201.483 862.18 173.927C862.454 171.652 861.906 170.641 860.265 170.641C858.898 170.641 858.077 171.652 857.803 173.927C855.341 190.106 847.956 195.415 843.579 195.415C838.382 195.415 834.006 192.382 834.006 184.039C834.006 161.793 835.374 139.293 835.374 117.047C835.374 85.9524 814.038 68.0034 773.008 68.0034C733.346 68.0034 707.907 87.4691 707.907 108.705C707.907 120.839 716.386 128.929 732.251 128.929C747.843 128.929 755.775 120.839 755.775 109.968C755.775 100.362 752.219 94.8005 752.219 89.4915C752.219 78.8739 756.596 75.8402 765.076 75.8402C774.922 75.8402 779.573 81.4022 779.573 110.221V117.553C779.573 125.642 774.922 131.709 766.717 134.238C731.978 145.108 699.154 157.495 699.154 182.522C699.154 202.999 715.565 213.87 735.534 213.87ZM751.672 165.332C751.672 156.989 754.134 145.361 767.264 137.271C775.196 133.985 779.573 136.513 779.573 144.602V161.54C779.573 169.882 768.631 178.983 761.519 178.983C756.322 178.983 751.672 176.203 751.672 165.332Z" fill="#141414"/>
<path d="M961.199 108.957L947.523 149.911C945.061 157.748 942.326 157.748 939.864 149.911L926.461 108.957C919.349 87.2166 924.272 76.8515 943.967 76.5985C963.388 76.8515 968.312 87.2166 961.199 108.957ZM834.006 74.829C834.006 76.8515 834.553 77.3573 837.288 77.3573C849.871 77.3573 859.171 82.6658 868.745 108.452L905.125 207.802C906.493 211.594 909.775 213.87 914.152 213.87H924.82C929.196 213.87 932.478 211.594 933.572 207.802L965.85 108.957C974.603 82.6659 983.629 77.3573 998.126 77.3573C1000.59 77.3573 1001.68 76.5986 1001.68 74.5766C1001.68 72.8066 1000.59 72.3012 998.126 72.3012C991.562 72.3012 983.903 73.0595 976.244 73.3124C963.935 73.0595 957.37 72.8066 944.788 72.8066H942.599C931.384 72.8066 921.264 73.3124 902.937 73.3124H863.548C856.983 73.3124 846.589 72.3012 837.288 72.3012C834.553 72.3012 834.006 73.0595 834.006 74.829Z" fill="#141414"/>
<path d="M1022.2 213.87C1042.71 213.87 1052.29 202.494 1060.77 177.972C1062.68 172.158 1068.7 173.674 1067.33 179.236C1062.41 198.702 1081.55 213.617 1102.07 213.617C1131.06 213.617 1146.38 201.483 1148.84 173.927C1149.12 171.652 1148.57 170.641 1146.93 170.641C1145.56 170.641 1144.74 171.652 1144.47 173.927C1142.01 190.106 1134.62 195.415 1130.24 195.415C1125.05 195.415 1120.67 192.382 1120.67 184.039C1120.67 161.793 1122.04 139.293 1122.04 117.047C1122.04 85.9524 1100.7 68.0034 1059.67 68.0034C1020.01 68.0034 994.571 87.4691 994.571 108.705C994.571 120.839 1003.05 128.929 1018.92 128.929C1034.51 128.929 1042.44 120.839 1042.44 109.968C1042.44 100.362 1038.88 94.8005 1038.88 89.4915C1038.88 78.8739 1043.26 75.8402 1051.74 75.8402C1061.59 75.8402 1066.24 81.4022 1066.24 110.221V117.553C1066.24 125.642 1061.59 131.709 1053.38 134.238C1018.64 145.108 985.818 157.495 985.818 182.522C985.818 202.999 1002.23 213.87 1022.2 213.87ZM1038.34 165.332C1038.34 156.989 1040.8 145.361 1053.93 137.271C1061.86 133.985 1066.24 136.513 1066.24 144.602V161.54C1066.24 169.882 1055.3 178.983 1048.18 178.983C1042.99 178.983 1038.34 176.203 1038.34 165.332Z" fill="#141414"/>
<path d="M1221.33 172.663V72.8066C1221.33 50.3073 1224.07 22.4994 1224.07 5.05616C1224.07 2.0225 1222.42 6.10352e-05 1217.23 6.10352e-05C1200.27 6.10352e-05 1166.9 10.6177 1143.1 13.1455C1139.27 13.6513 1137.9 14.4096 1137.9 16.1791C1137.9 17.9487 1139 18.7074 1142.01 18.7074C1145.29 18.7074 1150.49 17.4433 1157.87 17.4433C1163.61 17.4433 1166.62 21.2353 1166.62 33.3699V172.663C1166.35 199.966 1158.69 205.78 1142.55 205.78C1139.27 205.78 1138.18 206.539 1138.18 208.561C1138.18 210.331 1139.27 210.836 1142.55 210.836C1154.59 210.836 1167.99 209.825 1176.2 209.825H1211.48C1219.96 209.825 1233.09 210.836 1245.13 210.836C1248.68 210.836 1249.78 210.078 1249.78 208.308C1249.78 206.286 1248.68 205.78 1245.13 205.78C1228.99 205.78 1221.33 199.966 1221.33 172.663Z" fill="#141414"/>
<path d="M1327.46 172.663V72.8066C1327.46 50.3073 1330.2 22.4994 1330.2 5.05616C1330.2 2.0225 1328.56 6.10352e-05 1323.36 6.10352e-05C1306.4 6.10352e-05 1273.03 10.6177 1249.23 13.1455C1245.4 13.6513 1244.03 14.4096 1244.03 16.1791C1244.03 17.9487 1245.13 18.7074 1248.14 18.7074C1251.42 18.7074 1256.62 17.4433 1264 17.4433C1269.75 17.4433 1272.76 21.2353 1272.76 33.3699V172.663C1272.48 199.966 1264.82 205.78 1248.68 205.78C1245.4 205.78 1244.31 206.539 1244.31 208.561C1244.31 210.331 1245.4 210.836 1248.68 210.836C1260.72 210.836 1274.12 209.825 1282.33 209.825H1317.61C1326.09 209.825 1339.22 210.836 1351.26 210.836C1354.82 210.836 1355.91 210.078 1355.91 208.308C1355.91 206.286 1354.82 205.78 1351.26 205.78C1335.12 205.78 1327.46 199.966 1327.46 172.663Z" fill="#141414"/>
</g>
<defs>
<clipPath id="clip0_6_24">
<rect width="1355.91" height="213.87" fill="white"/>
</clipPath>
</defs>
</svg>
